<?xml version="1.0" encoding="utf-8"?>
<!-- Generator: Adobe Illustrator 22.1.0, SVG Export Plug-In . SVG Version: 6.00 Build 0)  -->
<svg version="1.1" id = "svgEventStatus" class = 'svgEventStatus' xmlns="http://www.w3.org/2000/svg" xmlns:xlink="http://www.w3.org/1999/xlink" x="0px" y="0px"
	 viewBox="-10 0 173 152" style="enable-background:new 0 0 153 152;" xml:space="preserve">
<style type="text/css">
	.st0{display:none;fill:none;stroke:#000000;stroke-miterlimit:10;}
	.st1{fill:#FF1D0E;stroke:#000000;stroke-width:2;stroke-miterlimit:10;}
	.st2{fill:#FFCD09;stroke:#000000;stroke-width:2;stroke-miterlimit:10;}
	.st3{fill:#6693C0;stroke:#000000;stroke-width:2;stroke-miterlimit:10;}
	.st4{fill:none;stroke:#000000;stroke-width:2;stroke-miterlimit:10;}
	.st5{fill:#326FAB;stroke:#000000;stroke-width:2;stroke-miterlimit:10;}
	.st6{display:block;}
	.st7{display:none;stroke:#000000;stroke-width:0;stroke-miterlimit:10;}

</style>
	<defs>
		<filter id="drop-shadow">
			 <feGaussianBlur in="SourceAlpha" stdDeviation="2" result="blur" />
			 <feOffset in="blur" dx="4" dy="4" result="offsetblur" />
			 <feFlood flood-color="rgba(0,0,0,0.5)" result="flood" />
			 <feComposite in="flood" in2="offsetblur" operator="in" result="shadow"/>
			 <feMerge>
			   <feMergeNode in="shadow" />
			   <feMergeNode in="SourceGraphic"/>
			 </feMerge>
   		</filter>

		<filter id="drop-shadow2">
			 <feGaussianBlur in="SourceAlpha" stdDeviation="2" result="blur" />
			 <feOffset in="blur" dx="0" dy="-4" result="offsetblur" />
			 <feFlood flood-color="rgba(0,0,0,0.5)" result="flood" />
			 <feComposite in="flood" in2="offsetblur" operator="in" result="shadow"/>
			 <feMerge>
			   <feMergeNode in="shadow" />
			   <feMergeNode in="SourceGraphic"/>
			 </feMerge>
   		</filter>

		<filter id="drop-shadow3">
			 <feGaussianBlur in="SourceAlpha" stdDeviation="2" result="blur" />
			 <feOffset in="blur" dx="-4" dy="4" result="offsetblur" />
			 <feFlood flood-color="rgba(0,0,0,0.5)" result="flood" />
			 <feComposite in="flood" in2="offsetblur" operator="in" result="shadow"/>
			 <feMerge>
			   <feMergeNode in="shadow" />
			   <feMergeNode in="SourceGraphic"/>
			 </feMerge>
   		</filter>
	</defs>
<g id="all" class = 'allStatus'>

	<g id="Buttons" class = 'buttonsStatus'>
		<g id="giveUp" class = 'giveUpStatus'>
			<path class="st1" d="M151.5,75.5c0,8.5-1.4,16.7-4,24.3c-1.6,4.7-7.2,6.8-11.5,4.3l-12.4-7.2c-3.2-1.8-4.8-5.6-3.8-9.1
				c1.1-3.9,1.7-8.1,1.7-12.3c0-21-14.4-38.7-33.9-43.6c-3.5-0.9-6.1-4.1-6.1-7.7V9.7c0-5,4.6-8.8,9.5-7.8
				c19.9,3.9,36.9,15.6,47.8,31.8c1.8,2.8,3.5,5.6,5,8.7C148.7,52.4,151.5,63.6,151.5,75.5z"/>
			<polygon points="138.5,38.6 135.3,35.4 128.8,41.8 122.4,35.4 119.2,38.6 125.6,45.1 119.2,51.5 122.4,54.7 128.8,48.3 
				135.3,54.7 138.5,51.5 132.1,45.1"/></g>
		<g id="during" class = 'duringStatus'>
			<path class="st2 " d="M71.5,9.7v14.5c0,3.7-2.5,6.8-6.1,7.7c-19.5,4.9-33.9,22.6-33.9,43.6c0,4.3,0.6,8.4,1.7,12.3
				c1,3.5-0.6,7.2-3.8,9.1L17,104.1c-4.3,2.5-9.9,0.4-11.5-4.3c-2.6-7.6-4-15.8-4-24.3c0-11.9,2.8-23.1,7.7-33.1
				c1.5-3,3.2-5.9,5-8.7C25.1,17.5,42.1,5.8,62,1.9C66.9,0.9,71.5,4.7,71.5,9.7z"/>
			<!--Hammer and wrench-->
			<g class = 'insideG'>
				<path d="M33.9,52.1l-6.6-6.6c-0.1-0.1-0.1-0.1-0.2-0.2l1.2-1.2c0.1-0.1,0.1-0.1,0.2-0.2c1.6,0.6,3.4,0.3,4.6-1
					c0.9-0.9,1.4-2.2,1.3-3.5c0-0.1-0.1-0.3-0.2-0.3c-0.1-0.1-0.3,0-0.4,0.1l-2.1,2.1l-2.2-0.5l-0.6-2.2l2.1-2.1
					c0.1-0.1,0.1-0.3,0.1-0.4c-0.1-0.1-0.2-0.2-0.3-0.2c-1.3-0.1-2.6,0.4-3.5,1.3c-1.3,1.3-1.6,3.1-1,4.6c-0.1,0.1-0.1,0.1-0.2,0.2
					l-1.7,1.7l-3.2-3.2c0,0-0.1-0.1-0.1-0.1c0-0.1,0.1-0.1,0.1-0.2c0.7,0.1,1.9-1.2,2.9-2.2l-3-3c-1.4,1.4-2.3,2.3-2.2,2.9
					c-0.3,0.2-0.6,0.3-0.8,0.5l-0.4,0.4c-0.3,0.3-0.4,0.6-0.5,1c0,0-0.1,0.1-0.1,0.2L16.8,40c0,0,0,0,0,0l-0.1,0.2
					c-0.1,0.1-0.2,0.3-0.2,0.4c0,0-0.1,0.1-0.1,0.1c0,0,0,0,0,0l-0.1,0.1c-0.1,0.1-0.2,0.3-0.2,0.5l0,0c-0.1,0.2-0.2,0.4-0.2,0.6
					l0,0.1c0,0.1,0,0.2-0.1,0.2l-0.1,0.3c0,0.2-0.1,0.4-0.1,0.5l0,0.1c0,0.2,0,0.3,0,0.5c0,0,0,0.1,0,0.2c0,0,0,0.1,0,0.1
					c0,0.1,0,0.1,0,0.2l0,0.2c0,0,0,0.1,0,0.1c0,0.1,0,0.2,0.1,0.3l0.2,0.5c0,0.2,0.2,0.3,0.4,0.3c0.1,0,0.2,0,0.2-0.1
					c0.1-0.1,0.1-0.1,0.1-0.2l0.1-0.5c0,0,0-0.1,0-0.2c0,0,0-0.1,0-0.1l0.1-0.2c0,0,0-0.1,0-0.1c0,0,0-0.1,0-0.1c0,0,0-0.1,0.1-0.1
					c0-0.1,0.1-0.2,0.1-0.3c0,0,0-0.1,0.1-0.1c0.1-0.1,0.1-0.2,0.2-0.3c0,0,0,0,0,0l0.1-0.2c0,0,0.1-0.1,0.1-0.1c0,0,0,0,0.1-0.1
					c0.1-0.1,0.2-0.2,0.3-0.3l0,0c0.1-0.1,0.1-0.1,0.2-0.2c0,0,0.1,0,0.1-0.1c0,0,0.1-0.1,0.1-0.1c0.1,0,0.1-0.1,0.2-0.1l0.2-0.1
					l0.2-0.1c0.1,0,0.1-0.1,0.2-0.1c0,0,0.1,0,0.1,0c0,0,0.1,0,0.1,0c0,0,0.1,0,0.1,0l0,0c0,0.1,0.1,0.2,0.2,0.2l3.1,3.1l-6.7,6.4
					c0,0,0,0,0,0c-0.8,0.8-1,2.1-0.1,2.9c0.8,0.8,2,0.6,2.8-0.2c0,0,0,0,0,0l5.9-6.2c0,0,0.1,0.1,0.1,0.1l6.6,6.6
					c0.7,0.7,2,0.7,2.7,0C34.7,54.1,34.7,52.9,33.9,52.1z"/>
			</g></g>
		<g id="canceled" class = 'canceledStatus'>
			<path class="st3" d="M22,112.7c-4.3,2.5-5.3,8.3-2,12.1c12.7,14.6,31,24.1,51.5,25.5c1.7,0.1,3.3,0.2,5,0.2s3.3-0.1,5-0.2
				c20.5-1.3,38.8-10.9,51.5-25.5c3.3-3.8,2.3-9.6-2-12.1l-12.5-7.2c-3.2-1.8-7.1-1.3-9.7,1.4c-8.2,8.4-19.6,13.6-32.3,13.6
				s-24.1-5.2-32.3-13.6c-2.5-2.6-6.5-3.2-9.7-1.4L22,112.7z"/>
			<g class = 'insideG'>
				<path class="st4" d="M88.5,135.8c0,6.5-5.3,11.8-11.8,11.8c-2.9,0-5.5-1-7.6-2.8c-0.8-0.7-1.5-1.5-2.1-2.3
					c-1.3-1.9-2.1-4.2-2.1-6.7c0-6.5,5.3-11.8,11.8-11.8c2.5,0,4.8,0.8,6.7,2.1c0.9,0.6,1.7,1.3,2.3,2.1
					C87.5,130.3,88.5,132.9,88.5,135.8z"/>
				<path d="M85.7,128.2l-16.5,16.5c-0.8-0.7-1.5-1.5-2.1-2.3l16.3-16.3C84.3,126.7,85.1,127.4,85.7,128.2z"/></g>
		</g>
	</g>



	<g id="centerButton" class = 'centerCircleSVG'>
		<circle id = 'centerCircle' class="st5" cx="76.5" cy="75.5" r="35"/>
		<path id="added" class="st6" d="M61.7,70.7l3.7,3.2l4,9.9c0.2,0.4,0.5,0.7,0.9,0.8l19.3,6.1c0.1,0,0.3,0.1,0.4,0.1
			c0.4,0,0.7-0.1,1-0.4c0.4-0.4,0.5-0.9,0.4-1.5l-6.1-19.3c-0.1-0.4-0.4-0.7-0.8-0.9l-9.9-4L71.4,61c-0.3-0.3-0.6-0.5-1-0.5
			c-0.4,0-0.8,0.1-1.1,0.4l-7.7,7.7c-0.3,0.3-0.4,0.7-0.4,1.1C61.2,70.1,61.4,70.5,61.7,70.7L61.7,70.7z M86.9,84.2l-9.7-9.7
			c-0.6-0.6-1.5-0.6-2,0c-0.6,0.6-0.6,1.5,0,2l9.7,9.7l-13-4.1l-3.5-8.7l5.8-5.8l8.7,3.5L86.9,84.2L86.9,84.2z M70.2,64.1l1.5,1.8
			l-5.2,5.2l-1.8-1.5C64.8,69.6,70.2,64.1,70.2,64.1z"/>
		<path id="done" class="st7" d="M72.9,96.6c-0.4,0.5-1.2,0.5-1.6,0.1L53.4,79.8c-0.5-0.4-0.5-1.2,0-1.7l5.7-6
			c0.4-0.5,1.2-0.5,1.7,0l9.8,9.2c0.5,0.4,1.2,0.4,1.6-0.1L91.1,59c0.4-0.5,1.2-0.5,1.7-0.1l6.3,5.4c0.5,0.4,0.5,1.2,0.1,1.7
			L72.9,96.6z"/>
	</g>
</g>
</svg>
